<svg width="452" height="452" viewBox="0 0 452 452" fill="none" xmlns="http://www.w3.org/2000/svg">
<path d="M81.9 19.6C76 21.4 68.9 27.7 65.9 33.7L63.5 38.5V226V413.5L65.9 418.3C69 424.6 76 430.6 82.3 432.5C89.9 434.7 362.1 434.8 369.6 432.5C376 430.6 382.3 425.2 385.8 418.6L388.5 413.5V226V38.5L385.8 33.4C382.3 26.8 376 21.4 369.6 19.5C362.3 17.3 89 17.4 81.9 19.6ZM365.9 37.5C367.5 38.3 369.3 40.3 369.9 42.1C371.5 46.6 371.5 405.4 369.9 409.9C367.6 416.4 376.9 416 226 416C75.1 416 84.4 416.4 82.1 409.9C80.5 405.4 80.5 46.6 82.1 42.1C84.3 35.7 75 36.1 225.8 36C344.7 36 363.5 36.2 365.9 37.5Z" fill="black"/>
<path d="M216.1 80.2C205.2 89.7 199.9 97.1 199.2 103.9C198.8 108.8 198.9 109.2 202.8 113C206.7 116.9 208.4 117.5 215 117C216.4 117 218.8 116 220.3 114.9L223.1 112.9L222.4 115.7C220.5 123.6 218.1 132.7 217.5 134.2C216.8 135.8 217.6 136 226 136C234.4 136 235.2 135.8 234.5 134.2C233.9 132.7 231.5 123.6 229.6 115.7L228.9 112.9L231.7 114.9C236.9 118.6 243.9 118 248.8 113.6C252.2 110.4 252.5 109.7 252.5 104.6C252.5 99.8 252 98.4 248.4 93.3C244 87 228.5 73 226 73C225.1 73 220.7 76.3 216.1 80.2Z" fill="black"/>
<path d="M217.5 317.7C218.1 319.3 220.5 328.4 222.4 336.3L223.1 339.1L220.3 337.1C218.8 336 216.4 335 215 335C208.4 334.5 206.7 335.1 202.8 339C198.9 342.8 198.8 343.2 199.2 348.1C199.6 351.9 200.7 354.6 203.7 358.8C208.1 365 223.5 379 226 379C228.5 379 243.9 365 248.3 358.8C251.3 354.6 252.4 351.9 252.8 348.1C253.2 343.2 253.1 342.8 249.2 339C245.3 335.1 243.6 334.5 237 335C235.6 335 233.2 336 231.7 337.1L228.9 339.1L229.6 336.3C231.5 328.4 233.9 319.3 234.5 317.7C235.2 316.2 234.4 316 226 316C217.6 316 216.8 316.2 217.5 317.7Z" fill="black"/>
</svg>
